<svg width="653.08" height="641" preserveAspectRatio="xMidYMid" version="1.1" viewBox="0 0 326.54 320.5" xmlns="http://www.w3.org/2000/svg">
  <g transform="translate(2.4999 2.5247)">
    <g transform="translate(0 -.024691)">
      <path d="m214.75 46.25c3.5898 0 6.5-2.9101 6.5-6.5s-2.9102-6.5-6.5-6.5-6.5 2.9101-6.5 6.5 2.9102 6.5 6.5 6.5zm8.25 56s-8.25-41.5-62.25-30.25c-5.5-18.75-4.5-32.5 7.5-45.25 16.25-17.25 41.75-7.75 41.75-7.75v-14.25c-9-4-17.5-4.75-27-4.75-34.75 0-54 26-62.25 43.5l-97.75 179.75 27.5-5.25-50.5 97.5 35.25-6.25 27-76.75c76.5 0 174.5-27.5 160.75-130.25zm31.907-21.743-20.407-33.757-17 20.75zm-179.91 129.74s2.5-.5 7-1.5 10.75-2.5 18.25-4.5c3.75-1 7.75-2.25 12-3.75s8.75-3 13-5c4.5-1.75 9-4 13.5-6.5s8.75-5.25 12.75-8.5c1-.75 2-1.5 3-2.5l3-2.5c1.75-1.75 3.75-3.5 5.5-5.5 1.75-1.75 3.25-3.75 4.75-5.75l2.25-3 2-3c.5-1 1.25-2 1.75-3s1-2 1.75-3l1.5-3c.5-1 1-2 1.25-3l2.25-6c.5-2 1.25-4 1.75-5.75s.75-3.75 1.25-5.25c.25-1.75.5-3.25.75-5 .25-1.5.5-3 .5-4.25.25-1.25.25-2.5.5-3.75.25-4.5.25-7 .25-7l4 .25s-.25 2.75-.5 7.25c-.25 1.25-.25 2.5-.5 3.75-.25 1.5-.25 3-.75 4.5-.25 1.5-.75 3.25-1 5-.5 1.75-1 3.5-1.5 5.5s-1.25 3.75-2 6c-.75 2-1.5 4-2.5 6.25l-3 6c-.5 1-1.25 2-1.75 3.25-.75 1-1.25 2-2 3-.25.5-.75 1-1 1.5l-1 1.5-2.25 3c-1.75 2-3.25 4-5.25 5.75-1.75 2-3.75 3.5-5.75 5.5l-3 2.5c-1 .75-2 1.5-3.25 2.25-4.25 3-8.75 5.75-13.25 8.25-4.5 2.25-9.25 4.5-13.75 6.25s-9 3.25-13.25 4.5-8.25 2.5-12.25 3.25c-7.5 1.75-14 3.25-18.5 4-4 1.5-6.5 2-6.5 2zm195.86-159.9-36.629-4.0919-16.652 21.461z"/>
    </g>
    <g transform="matrix(.13366 .013921 -.016968 .16292 142.17 25.551)">
      <path d="m769.92 190.91s-2.038 140.71 16.296 166.11l317.86-90.73-16.303-169.11-317.85 93.726" fill="#fde064"/>
      <path d="m788.87 228.79c-24.986-20.532-39.322-44.218-39.322-69.46v130.39c0 24.364 13.29 47.285 36.669 67.299v-127.41l2.653-.826" fill="#fab20b"/>
      <path d="m749.54 148.12v11.215c0-3.78.412-7.506 1.045-11.215z" fill="#f7960f"/>
      <path d="m1055.2 300.93c-21.964 0-43.374-1.099-64.028-3.138l-1.178 3.138v127.13c21.025 2.11 42.821 3.262 65.206 3.262 168.8 0 305.62-63.395 305.62-141.6v-130.39c0 78.196-136.83 141.6-305.62 141.6" fill="#fab20b"/>
      <path d="m1359.7 148.12c-12.333-72.958-143.93-130.4-304.58-130.4-160.65 0-292.24 57.437-304.58 130.4-.633 3.709-1.045 7.435-1.045 11.215 0 25.242 14.335 48.928 39.321 69.46l258.14-80.675-55.873 149.68c20.654 2.039 42.064 3.138 64.028 3.138 168.8 0 305.62-63.404 305.62-141.6 0-3.78-.415-7.506-1.046-11.215" fill="#fbc829"/>
      <path d="m1360.8 159.33c0-3.78-.415-7.507-1.046-11.215h1.046v11.215" fill="#f79610"/>
      <g fill="#f8a512">
        <path d="m1111.2 237.77c-15.197 0-27.501-9.58-27.501-21.393 0-11.814 12.304-21.394 27.501-21.394 15.196 0 27.501 9.58 27.501 21.394 0 11.813-12.305 21.393-27.501 21.393"/>
        <path d="m874.85 154.23c-12.947 0-23.432-7.752-23.432-17.315 0-9.571 10.485-17.322 23.432-17.322 12.936 0 23.422 7.751 23.422 17.322 0 9.563-10.486 17.315-23.422 17.315"/>
        <path d="m996.08 117.56c-12.374 0-22.411-8.667-22.411-19.362 0-10.678 10.037-19.345 22.411-19.345 12.384 0 22.421 8.667 22.421 19.345 0 10.695-10.037 19.362-22.421 19.362"/>
        <path d="m1241.6 217.39c-9.57 0-17.323-6.38-17.323-14.255 0-7.884 7.753-14.265 17.323-14.265 9.554 0 17.315 6.381 17.315 14.265 0 7.875-7.761 14.255-17.315 14.255"/>
        <path d="m1145.8 142.01c-11.821 0-21.393-6.838-21.393-15.284 0-8.437 9.572-15.275 21.393-15.275 11.812 0 21.392 6.838 21.392 15.275 0 8.446-9.58 15.284-21.392 15.284"/>
        <path d="m1273.2 111.45c-6.749 0-12.226-5.476-12.226-12.226s5.477-12.225 12.226-12.225c6.751 0 12.226 5.475 12.226 12.225s-5.475 12.226-12.226 12.226"/>
        <path d="m1116.3 78.85c-14.625 0-26.483-7.303-26.483-16.303 0-9.009 11.858-16.304 26.483-16.304 14.634 0 26.49 7.295 26.49 16.304 0 9-11.856 16.303-26.49 16.303"/>
        <path d="m1022.6 50.32c-10.124 0-18.341-4.561-18.341-10.186s8.217-10.186 18.341-10.186c10.126 0 18.335 4.561 18.335 10.186s-8.209 10.186-18.335 10.186"/>
        <path d="m781.12 188.87c-10.687 0-19.352-9.124-19.352-20.374 0-11.258 8.665-20.381 19.352-20.381 10.688 0 19.354 9.123 19.354 20.381 0 11.25-8.666 20.374-19.354 20.374"/>
      </g>
      <g fill="#f79310">
        <path d="m1067.4 400.77c-14.633 0-26.49-10.037-26.49-22.412s11.857-22.412 26.49-22.412c14.625 0 26.482 10.037 26.482 22.412s-11.857 22.412-26.482 22.412"/>
        <path d="m1193.7 347.8c-12.375 0-22.411-8.208-22.411-18.342 0-10.125 10.036-18.334 22.411-18.334s22.413 8.209 22.413 18.334c0 10.134-10.038 18.342-22.413 18.342"/>
        <path d="m1323.1 335.57c-8.437 0-15.275-7.304-15.275-16.296 0-9.008 6.838-16.302 15.275-16.302 8.438 0 15.285 7.294 15.285 16.302 0 8.992-6.847 16.296-15.285 16.296"/>
        <path d="m1319 254.07c-8.537 0-16.091-3.523-20.711-8.937 14.64-8.893 27.065-18.618 36.88-28.985 5.675 3.921 9.294 9.865 9.294 16.521 0 11.83-11.4 21.401-25.463 21.401"/>
      </g>
      <path d="m1298.3 245.13c-2.995-3.509-4.759-7.813-4.759-12.464 0-11.813 11.4-21.385 25.47-21.385 6.14 0 11.772 1.825 16.169 4.864-9.815 10.367-22.24 20.092-36.88 28.985" fill="#f8a512"/>
      <path d="m1066.4 325.38c-11.812 0-21.392-9.58-21.392-21.392 0-1.065.077-2.112.227-3.134 3.306.05 6.626.075 9.959.075 10.89 0 21.661-.265 32.256-.779.225 1.245.344 2.528.344 3.838 0 11.812-9.581 21.392-21.394 21.392" fill="#f79310"/>
      <path d="m1055.2 300.93c-3.332 0-6.652-.025-9.959-.075 1.517-10.335 10.417-18.268 21.165-18.268 10.504 0 19.243 7.574 21.05 17.564-10.595.514-21.366.779-32.256.779" fill="#f8a512"/>
      <path d="m770.94 221.47c-8.438 0-15.284-5.933-15.284-13.245 0-4.09 2.141-7.748 5.504-10.178 4.587 7.471 10.463 14.689 17.509 21.604-2.267 1.156-4.909 1.819-7.729 1.819" fill="#f79310"/>
      <path d="m778.67 219.65c-7.045-6.915-12.921-14.133-17.509-21.604 2.65-1.915 6.06-3.069 9.78-3.069 8.438 0 15.276 5.934 15.276 13.246 0 4.868-3.031 9.125-7.547 11.427" fill="#f8a512"/>
    </g>
    <g transform="translate(-.85883 -.59195)"></g>
    <g transform="translate(1.1801 .37849)">
      <path d="m270.86 50.353-36.629-4.0919-16.652 21.461z"/>
    </g>
  </g>
</svg>
